<svg width="109" height="18" viewBox="0 0 109 18" fill="none" xmlns="http://www.w3.org/2000/svg">
<path d="M3.16754 3.30845C1.59948 4.85311 0.827148 6.81904 0.827148 9.20624C0.827148 11.7573 1.59948 13.8402 3.14414 15.4083C4.6888 16.9763 6.70154 17.7721 9.20576 17.7721C9.93128 17.7721 10.7504 17.6551 11.6398 17.3976V13.6062C10.8206 13.8402 10.1185 13.9572 9.51001 13.9572C8.2696 13.9572 7.28663 13.536 6.53771 12.7168C5.78878 11.8743 5.41432 10.7509 5.41432 9.32326C5.41432 7.98923 5.78879 6.88925 6.51431 6.04671C7.26324 5.18076 8.17599 4.75949 9.29938 4.75949C10.0249 4.75949 10.7972 4.87651 11.6398 5.11055V1.31912C10.8674 1.10848 10.0015 1.01486 9.08874 1.01486C6.70154 0.991457 4.73561 1.76379 3.16754 3.30845ZM19.4099 0.991455C17.2567 0.991455 15.5716 1.71698 14.3546 3.14462C13.1376 4.57226 12.5525 6.585 12.5525 9.15944C12.5525 11.9445 13.161 14.0743 14.3546 15.5487C15.5482 17.0232 17.3035 17.7721 19.5971 17.7721C21.8205 17.7721 23.529 17.0232 24.7226 15.5487C25.9162 14.0743 26.5247 11.9913 26.5247 9.32326C26.5247 6.65521 25.9162 4.59566 24.6992 3.14462C23.4588 1.71698 21.7035 0.991455 19.4099 0.991455ZM21.2588 13.1615C20.8375 13.8168 20.2056 14.1445 19.4099 14.1445C18.6609 14.1445 18.0993 13.8168 17.7014 13.1615C17.3035 12.5062 17.1163 11.1956 17.1163 9.20624C17.1163 6.14032 17.8886 4.61907 19.4567 4.61907C21.095 4.61907 21.9375 6.16373 21.9375 9.27645C21.9141 11.1956 21.6801 12.5062 21.2588 13.1615ZM38.0862 1.43614L37.2437 5.01694C37.033 5.92969 36.8224 6.86585 36.6352 7.82541L36.1671 10.3062C35.7224 7.82541 35.1139 4.87651 34.3416 1.43614H28.9119L26.8757 17.3742H30.948L32.048 6.39777L34.8331 17.3742H37.7352L40.4032 6.42117L41.55 17.3742H45.8095L43.6564 1.43614H38.0862ZM57.5817 1.43614L56.7392 5.01694C56.5285 5.92969 56.3179 6.86585 56.1307 7.82541L55.6626 10.3062C55.2179 7.82541 54.6094 4.87651 53.8371 1.43614H48.4074L46.3712 17.3742H50.4435L51.5435 6.39777L54.3285 17.3742H57.2306L59.8753 6.42117L61.0221 17.3742H65.2816L63.1284 1.43614H57.5817ZM70.8283 11.0786H74.6432V7.7786H70.8283V4.8531H75.2283V1.45953H66.522V17.3976H75.2517V14.004H70.8283V11.0786ZM87.3749 8.55093C87.8196 7.82541 88.0536 7.07648 88.0536 6.30415C88.0536 4.8063 87.4685 3.6127 86.2983 2.74675C85.1281 1.8808 83.5133 1.43614 81.5005 1.43614H76.4921V17.3742H80.7984V10.119H80.8686L84.3558 17.3742H88.8962L85.4558 10.1892C86.2749 9.81474 86.9302 9.27645 87.3749 8.55093ZM80.775 8.29349V4.50205C81.8048 4.52545 82.5303 4.68928 82.975 5.01694C83.4196 5.34459 83.6303 5.85947 83.6303 6.6084C83.6303 7.70839 82.6707 8.27008 80.775 8.29349ZM90.5813 3.30845C89.0132 4.85311 88.2409 6.81904 88.2409 9.20624C88.2409 11.7573 89.0132 13.8402 90.5578 15.4083C92.1025 16.9763 94.1152 17.7721 96.6195 17.7721C97.345 17.7721 98.1641 17.6551 99.0535 17.3976V13.6062C98.2343 13.8402 97.5322 13.9572 96.9237 13.9572C95.6833 13.9572 94.7003 13.536 93.9514 12.7168C93.2025 11.8743 92.828 10.7509 92.828 9.32326C92.828 7.98923 93.2025 6.88925 93.928 6.04671C94.6769 5.18076 95.5897 4.75949 96.7131 4.75949C97.4386 4.75949 98.2109 4.87651 99.0535 5.11055V1.31912C98.2811 1.10848 97.4152 1.01486 96.5024 1.01486C94.1386 0.991457 92.1493 1.76379 90.5813 3.30845ZM104.553 13.9572V11.0551H108.368V7.7552H104.553V4.82971H108.977V1.43614H100.27V17.3742H109V13.9806H104.553V13.9572Z" fill="black"/>
</svg>
