<?xml version="1.0" encoding="utf-8"?>
<!-- Svg Vector Icons : http://www.onlinewebfonts.com/icon -->
<!DOCTYPE svg PUBLIC "-//W3C//DTD SVG 1.1//EN" "http://www.w3.org/Graphics/SVG/1.1/DTD/svg11.dtd">
<svg version="1.1" xmlns="http://www.w3.org/2000/svg" xmlns:xlink="http://www.w3.org/1999/xlink" x="0px" y="0px" viewBox="0 0 1000 1000" enable-background="new 0 0 1000 1000" xml:space="preserve">
<metadata> Svg Vector Icons : http://www.onlinewebfonts.com/icon </metadata>
<g><path d="M846.9,154C753.9,61,630.5,9.1,500,9.1C369.4,9.1,246,61,153.1,154C60.1,247,10,370.4,10,500.9c0,130.5,51.9,253.9,143.1,346.9c93,93,216.4,143.1,346.9,143.1c130.5,0,253.9-51.9,346.9-143.1c93-93,143.1-216.4,143.1-346.9C991.7,370.4,939.9,247,846.9,154z M322.9,677.9c-96.6-96.6-96.6-255.7,0-352.3c46.5-46.5,109.1-73.3,177-73.3c66.2,0,128.8,26.8,177,73.3c46.5,46.5,73.3,109.1,73.3,177c0,66.2-26.8,128.8-73.3,177c-48.3,44.7-110.9,71.5-177,71.5C433.8,751.2,371.2,724.4,322.9,677.9z M789.7,611.8c14.3-35.8,21.5-73.3,21.5-110.9c0-32.2-5.4-64.4-14.3-94.8l93-93c28.6,57.2,42.9,121.6,42.9,187.8c0,71.5-17.9,141.3-50.1,202.1L789.7,611.8z M687.7,112.8l-93,93c-30.4-8.9-62.6-14.3-94.8-14.3c-39.3,0-76.9,7.2-110.9,21.5l-91.2-91.2C360.5,89.6,428.4,71.7,500,71.7C566.1,69.9,630.5,84.2,687.7,112.8z M104.8,327.4l94.8,94.8c-14.3,57.2-12.5,116.2,5.4,173.5l-93,93C83.3,631.4,69,567.1,69,500.9C69,440.1,81.5,381.1,104.8,327.4z M312.2,888.9l93-93c30.4,8.9,62.6,14.3,94.8,14.3c26.8,0,53.6-3.6,78.7-10.7l94.8,94.8c-53.6,23.2-112.7,35.8-173.5,35.8C433.8,931.9,369.4,917.6,312.2,888.9z"/></g>
</svg>