<svg width="14" height="19" viewBox="0 0 14 19" fill="none" xmlns="http://www.w3.org/2000/svg">
<path d="M12.4999 3.51898C11.6573 2.04453 10.3935 1.15518 8.75526 0.804121C8.31059 0.710506 7.88932 0.663696 7.49145 0.663696C5.24467 0.663696 3.41916 1.83389 1.99152 4.17429C0.774519 6.16362 0.166016 8.36359 0.166016 10.7742C0.166016 12.5763 0.540479 14.121 1.28941 15.4082C2.13195 16.8826 3.37236 17.772 5.03404 18.123C5.47871 18.2167 5.89998 18.2635 6.29785 18.2635C8.56803 18.2635 10.3935 17.0933 11.7978 14.7529C13.0148 12.7401 13.6233 10.5402 13.6233 8.12955C13.6233 6.30404 13.2488 4.78279 12.4999 3.51898ZM9.55099 10.0019C9.22334 11.5465 8.63824 12.6933 7.77229 13.4657C7.09358 14.0742 6.46168 14.3316 5.87658 14.2146C5.31488 14.0976 4.8468 13.6061 4.49574 12.6933C4.21489 11.9678 4.07447 11.2423 4.07447 10.5636C4.07447 9.97847 4.12128 9.39336 4.2383 8.85507C4.44894 7.89551 4.8468 6.95936 5.47871 6.07001C6.25104 4.92321 7.07017 4.45513 7.91272 4.61896C8.47441 4.73598 8.94249 5.22746 9.29355 6.14022C9.57439 6.86574 9.71482 7.59126 9.71482 8.26998C9.71482 8.87848 9.66801 9.46358 9.55099 10.0019Z" fill="white"/>
</svg>
