<svg width="15" height="19" viewBox="0 0 15 19" fill="none" xmlns="http://www.w3.org/2000/svg">
<path d="M13.1737 3.51898C12.3312 2.04453 11.0908 1.15518 9.42909 0.804121C8.98442 0.710506 8.56314 0.663696 8.16527 0.663696C5.9185 0.663696 4.09299 1.83389 2.66535 4.17429C1.44834 6.16362 0.839844 8.36359 0.839844 10.7742C0.839844 12.5763 1.2143 14.121 1.96323 15.4082C2.80577 16.8826 4.04618 17.772 5.70786 18.123C6.15253 18.2167 6.57381 18.2635 6.97168 18.2635C9.24186 18.2635 11.0674 17.0933 12.4716 14.7529C13.6886 12.7401 14.2971 10.5402 14.2971 8.12955C14.2971 6.30404 13.9226 4.78279 13.1737 3.51898ZM10.2248 10.0019C9.89717 11.5465 9.31207 12.6933 8.44612 13.4657C7.76741 14.0742 7.1355 14.3316 6.5504 14.2146C5.98871 14.0976 5.52063 13.6061 5.16957 12.6933C4.88872 11.9678 4.7483 11.2423 4.7483 10.5636C4.7483 9.97847 4.79511 9.39336 4.91213 8.85507C5.12276 7.89551 5.52063 6.95936 6.15254 6.07001C6.92487 4.92321 7.74401 4.45513 8.58655 4.61896C9.14824 4.73598 9.61632 5.22746 9.96738 6.14022C10.2482 6.86574 10.3886 7.59126 10.3886 8.26998C10.3886 8.87848 10.3184 9.46358 10.2248 10.0019Z" fill="white"/>
</svg>
