<svg xmlns="http://www.w3.org/2000/svg" xmlns:xlink="http://www.w3.org/1999/xlink" id="Layer_1" x="0px" y="0px" viewBox="0 0 1080 1080" style="enable-background:new 0 0 1080 1080;" xml:space="preserve">
<style type="text/css">
	.st0{fill:#9B5C8F;}
	.st1{font-family:'PoppinsLatin-SemiBold';}
	.st2{font-size:67.9982px;}
</style>
<g>
	<g>
		<path class="st0" d="M50.76,446.34c4.21-10.17,14.75-17.33,25.79-17.32c81.57,0,163.15,0,244.72,0c3.68,0.04,7.41-0.23,11.02,0.62    c8.96,1.84,16.77,8.32,20.3,16.75c1.66,3.86,2.36,8.08,2.29,12.28c-0.01,29.81,0,59.63-0.01,89.44    c-0.02,3.36,0.15,6.75-0.52,10.06c-1.52,8.28-6.96,15.72-14.36,19.72c-4.19,2.3-8.95,3.49-13.72,3.48    c-29.79,0.01-59.58-0.01-89.37,0.01c4.1,10.03,8.19,20.06,12.28,30.09c-17.83-9.92-35.64-19.85-53.47-29.78    c-0.49-0.27-1.02-0.38-1.58-0.32c-39.03,0.02-78.05,0.01-117.08,0.01c-7.65,0.05-15.24-3.18-20.53-8.71    c-5.15-5.28-8.07-12.62-8.02-19.99c-0.02-31.49-0.01-62.99-0.01-94.49C48.45,454.12,49.16,450.06,50.76,446.34z M177.45,446.01    c-2.96,0.53-5.38,2.67-6.71,5.31c-5.4,10.04-8.49,21.12-10.95,32.2c-2.61,12-4.26,24.19-5.56,36.39    c-4.98-12.19-8.28-25.02-10.96-37.9c-0.95-4.28-1.24-9.05-4.22-12.52c-2.09-2.51-5.72-3.2-8.78-2.37    c-3.49,0.96-5.9,3.99-7.52,7.06c-9.19,17.44-18.31,34.9-27.5,52.33c-5.38-21.87-9.28-44.07-12.61-66.34    c-0.37-2.67-1.25-5.47-3.4-7.25c-2.27-1.89-5.42-2.16-8.24-1.82c-2.65,0.27-5.32,1.39-6.98,3.54c-2.08,2.47-2.66,5.89-2.17,9.01    c3.18,19.99,6.56,39.97,10.88,59.75c2.37,10.64,4.9,21.26,8.46,31.58c1.24,3.51,2.56,7.15,5.14,9.92    c1.43,1.56,3.61,2.57,5.74,2.03c3.45-0.82,6.02-3.52,8.26-6.11c5.12-6.29,8.9-13.53,12.4-20.81c5.06-10.3,10.27-20.53,15.45-30.78    c5.29,18.1,12.57,36.17,25.11,50.53c2.4,2.66,4.88,5.51,8.34,6.78c2.93,1.15,6.58,0.78,8.92-1.45c2.66-2.56,3.58-6.45,3.4-10.03    c-0.7-11.39,0.23-22.8,1.52-34.1c1.35-11.14,3.06-22.25,5.43-33.23c1.77-7.89,3.81-15.78,7.12-23.17    c0.91-2.13,2.32-4.07,2.66-6.41c0.42-2.48,0.02-5.14-1.35-7.27C186.84,447.09,181.94,444.92,177.45,446.01z M224.47,459.48    c-4.48,0.43-8.85,1.89-12.68,4.27c-7.55,4.67-12.75,12.24-16.63,20.07c-5.62,11.51-7.64,24.67-6.17,37.37    c1.03,8.29,4.07,16.55,9.71,22.82c6.59,7.29,16.98,10.39,26.59,9.3c7.64-0.81,14.67-4.91,19.71-10.63    c12.65-14.65,17.85-35.16,14.64-54.15c-1.48-8.01-5.03-15.9-11.09-21.5C242.1,461.21,233.05,458.68,224.47,459.48z M303.87,459.41    c-8.59,0.48-16.53,5.13-21.96,11.66c-7.64,9.12-12.49,20.5-14.15,32.25c-1.28,9.54-1.01,19.52,2.35,28.64    c2.56,6.91,6.96,13.45,13.45,17.21c7.87,4.53,17.72,5.69,26.35,2.78c6.16-2.06,11.41-6.28,15.39-11.36    c11.07-14.2,15.72-33.03,13.09-50.79c-1.27-8.16-4.69-16.2-10.58-22.1C321.56,461.57,312.48,458.85,303.87,459.41z"></path>
	</g>
	<path class="st0" d="M226.48,480.53c2.28-0.49,4.81-0.05,6.61,1.5c2.47,2.08,3.78,5.16,4.83,8.14c2.84,8.19,1.87,17.24-0.88,25.32   c-2.16,6.33-6.21,12.35-12.29,15.45c-2.75,1.44-6.4,1.49-8.8-0.67c-3.35-3.01-4.74-7.54-5.78-11.78   c-2.41-12.04,1.63-24.92,9.81-33.96C221.74,482.67,223.93,481.08,226.48,480.53z"></path>
	<path class="st0" d="M304.89,480.55c2.38-0.54,5.04-0.06,6.87,1.61c2.66,2.38,3.99,5.84,5.03,9.16c1.96,6.16,1.52,12.8,0.22,19.04   c-1.57,6.99-4.71,14.02-10.52,18.51c-2.62,2.09-6.09,3.83-9.5,2.8c-3.28-1.06-5.18-4.25-6.44-7.24   c-4.85-11.48-2.52-25.17,4.38-35.32C297.37,485.46,300.41,481.63,304.89,480.55z"></path>
</g>
<g>
	<path d="M402.12,463.68c9.54-3.22,20.02-3.2,29.75-0.87c0.02,6.78,0.01,13.56,0.01,20.33c-5.8-1.48-11.99-2.68-17.9-1.19   c-7.74,2.11-13.23,9.35-14.74,17.01c-1.17,6.11-0.89,12.62,1.39,18.45c2.24,5.73,7.09,10.47,13.06,12.13   c5.97,1.77,12.32,0.69,18.18-0.95c0,6.78,0.02,13.56-0.01,20.33c-9.19,2.76-19.17,2.58-28.33-0.2   c-9.59-2.92-17.93-9.55-23.08-18.12c-4.83-7.98-6.63-17.47-6.44-26.71c0.12-8.09,2.15-16.27,6.57-23.12   C385.64,472.95,393.28,466.73,402.12,463.68z"></path>
	<g>
		<path d="M468.56,461.32c9.54-0.89,19.78,0.54,27.72,6.27c6.35,4.45,10.52,11.42,12.71,18.75c2.61,8.76,2.95,18.05,2.2,27.11    c-0.89,9.86-3.94,19.97-10.83,27.34c-5.35,5.85-13.05,9.15-20.86,9.87c-8.87,0.85-18.33-0.29-25.96-5.2    c-6.78-4.32-11.36-11.42-13.77-18.98c-2.9-9.06-3.4-18.73-2.77-28.16c0.74-9.71,3.65-19.74,10.5-26.94    C452.9,465.47,460.65,462.05,468.56,461.32z M470.16,481.09c-2.16,0.75-3.93,2.36-5.12,4.28c-2.46,4.05-3.2,8.86-3.61,13.51    c-0.4,6-0.29,12.04,0.36,18.02c0.55,4.18,1.29,8.77,4.5,11.81c2.74,2.78,7.04,3.28,10.67,2.3c3.5-0.9,6.26-3.75,7.5-7.08    c1.39-3.67,1.85-7.61,2.19-11.5c0.47-6.51,0.51-13.13-0.87-19.55c-0.81-3.48-2.09-7.06-4.74-9.58    C478.21,480.56,473.81,479.87,470.16,481.09z"></path>
	</g>
	<path d="M869.57,463.8c9.61-3.34,20.22-3.35,30.05-0.99c0.04,6.78,0.01,13.56,0.02,20.33c-5.89-1.5-12.21-2.73-18.21-1.11   c-7.99,2.33-13.45,10.08-14.66,18.08c-1.16,7.77-0.24,16.42,4.78,22.77c2.93,3.72,7.26,6.31,11.93,7.15   c5.41,1.07,10.94,0.01,16.16-1.45c-0.04,6.79,0.08,13.59-0.06,20.38c-9.45,2.76-19.71,2.55-29.06-0.48   c-9.15-2.98-17.09-9.37-22.13-17.56c-4.71-7.62-6.63-16.68-6.64-25.56c-0.08-7.99,1.61-16.12,5.65-23.07   C852.35,473.82,860.3,467.08,869.57,463.8z"></path>
	<path d="M524.3,463.42c9.68,0.01,19.36,0.02,29.04,0c3.57,15.71,6.86,31.48,9.78,47.33c2.8-15.9,6.5-31.62,10.26-47.32   c9.95-0.01,19.9-0.03,29.85,0.02c3.82,28.44,7.69,56.88,11.51,85.33c-7.6,0.01-15.21,0-22.81,0.01   c-2.06-19.48-4.09-38.96-6.12-58.44c-4.82,19.46-9.5,38.96-14.27,58.43c-5.19,0.01-10.38,0.02-15.56,0   c-4.98-19.5-9.83-39.03-14.89-58.51c-1.95,19.51-3.91,39.01-5.86,58.51c-7.28,0.02-14.55,0.01-21.82,0.01   C517.02,520.33,520.63,491.87,524.3,463.42z"></path>
	<path d="M628.6,463.44c9.69-0.02,19.38-0.01,29.08-0.01c3.54,15.63,6.73,31.33,9.76,47.06c1.85-9.31,3.51-18.67,5.74-27.9   c1.5-6.33,2.93-12.67,4.5-18.98c1.65-0.44,3.58-0.06,5.35-0.18c8.12-0.01,16.24,0,24.36-0.01c3.86,28.45,7.69,56.9,11.53,85.36   c-7.61,0.01-15.21,0-22.81,0.01c-2.07-19.48-4.06-38.97-6.15-58.45c-4.73,19.48-9.41,38.96-14.12,58.44   c-5.19,0.02-10.38,0.01-15.56,0.01c-4.92-19.54-10-39.04-14.8-58.6c-2.17,19.52-3.93,39.08-5.97,58.61   c-7.28-0.01-14.55,0.01-21.82-0.01C621.33,520.33,624.96,491.88,628.6,463.44z"></path>
	<path d="M906.12,463.42c15.54,0.02,31.08,0,46.62,0.01c0.01,6.07,0.01,12.14,0,18.21c-7.89,0.01-15.78-0.01-23.67,0.01   c-0.01,5.2-0.01,10.4,0,15.6c6.8,0.01,13.6-0.01,20.4,0.01c0.01,5.9,0,11.8,0,17.7c-6.8,0.02-13.61,0-20.4,0.01   c-0.01,5.21-0.01,10.42,0,15.63c7.92,0.01,15.84,0.01,23.76,0.01c0.01,6.06,0.01,12.12,0,18.18c-15.57,0.01-31.15,0.01-46.72,0   C906.12,520.33,906.1,491.87,906.12,463.42z"></path>
	<path d="M725.54,463.56c15.53-0.01,31.07-0.01,46.6,0c0.01,6.07,0,12.13,0,18.2c-7.85,0.01-15.7,0-23.55,0.01   c-0.01,5.21-0.01,10.42,0.01,15.63c6.8,0.01,13.6,0,20.4,0.01c0.01,5.89,0.01,11.79,0,17.68c-6.8,0.02-13.61-0.02-20.41,0.01   c0.01,5.21-0.01,10.42,0.01,15.63c7.89,0.01,15.78-0.01,23.67,0.01c0.01,6.06,0.01,12.12,0,18.18   c-15.58,0.01-31.15,0.02-46.73-0.01C725.55,520.45,725.53,492.01,725.54,463.56z"></path>
	<g>
		<path d="M778.86,463.43c6.23-0.01,12.46,0,18.7-0.01c6.74,0.04,13.57-0.28,20.2,1.19c6.71,1.41,13.34,4.47,17.84,9.79    c6.16,7.3,6.86,18.55,1.84,26.65c-2.37,4.17-6.24,7.28-10.54,9.29c6.11,12.82,12.27,25.63,18.39,38.45    c-8.09,0.03-16.19-0.04-24.28,0.03c-5.03-10.25-9.91-20.59-14.88-30.87c-1.4-2.73-2.52-5.61-4.12-8.23    c-0.19,13.02,0.01,26.06-0.1,39.08c-7.69-0.03-15.37,0-23.05-0.02C778.86,520.33,778.86,491.88,778.86,463.43z M801.82,479.89    c0.01,6.75-0.01,13.51,0.01,20.26c3.85-0.13,7.89-0.41,11.34-2.33c2.17-1.17,3.75-3.44,3.86-5.94c0.22-3.41-0.62-7.36-3.65-9.37    C809.97,480.3,805.75,480.06,801.82,479.89z"></path>
	</g>
</g>
<text transform="matrix(1 0 0 1 642.0283 631.3389)" class="st0 st1 st2">Payment</text>
</svg>